<svg width="64" height="64" viewBox="0 0 64 64" fill="none" xmlns="http://www.w3.org/2000/svg">
<path d="M31.9991 0C14.3267 0 0 14.3278 0 31.9996C0 49.6722 14.3267 64.0004 31.9991 64.0004C49.6716 64.0004 64 49.6722 64 31.9996C64 14.3269 49.6716 0 31.9991 0ZM19.2678 43.6191C18.046 43.6191 17.0574 42.6303 17.0574 41.4081C17.0574 40.1869 18.0462 39.1981 19.2678 39.1981C20.4889 39.1981 21.4781 40.1869 21.4781 41.4081C21.4781 42.6303 20.4889 43.6191 19.2678 43.6191ZM19.2678 34.2106C18.046 34.2106 17.0574 33.2218 17.0574 31.9989C17.0574 30.7778 18.0462 29.789 19.2678 29.789C20.4889 29.789 21.4781 30.7778 21.4781 31.9989C21.4781 33.222 20.4889 34.2106 19.2678 34.2106ZM19.2678 24.8023C18.046 24.8023 17.0574 23.8135 17.0574 22.5913C17.0574 21.3702 18.0462 20.3814 19.2678 20.3814C20.4889 20.3814 21.4781 21.3702 21.4781 22.5913C21.4781 23.8135 20.4889 24.8023 19.2678 24.8023ZM46.9428 43.4806H26.2188C24.9967 43.4806 24.0057 42.4897 24.0057 41.2675C24.0057 40.0453 24.9967 39.0543 26.2188 39.0543H46.9428C48.165 39.0543 49.156 40.0453 49.156 41.2675C49.156 42.4897 48.165 43.4806 46.9428 43.4806ZM46.9428 34.1438H26.2188C24.9967 34.1438 24.0057 33.1529 24.0057 31.9307C24.0057 30.7085 24.9967 29.7175 26.2188 29.7175H46.9428C48.165 29.7175 49.156 30.7085 49.156 31.9307C49.156 33.1527 48.165 34.1438 46.9428 34.1438ZM46.9428 24.8068H26.2188C24.9967 24.8068 24.0057 23.8158 24.0057 22.5936C24.0057 21.3715 24.9967 20.3805 26.2188 20.3805H46.9428C48.165 20.3805 49.156 21.3715 49.156 22.5936C49.156 23.8158 48.165 24.8068 46.9428 24.8068Z" fill="#0E78BE"/>
</svg>
