<svg width="64" height="64" viewBox="0 0 64 64" fill="none" xmlns="http://www.w3.org/2000/svg">
<path d="M32.0002 50.7316C33.3809 50.7316 34.5001 49.6124 34.5001 48.2318C34.5001 46.8512 33.3809 45.7319 32.0002 45.7319C30.6196 45.7319 29.5004 46.8512 29.5004 48.2318C29.5004 49.6124 30.6196 50.7316 32.0002 50.7316Z" fill="#0E78BE"/>
<path d="M38.9741 14.5597H25.0259C24.244 14.5597 23.6078 15.1662 23.6078 15.9103V42.2768C23.6078 43.0215 24.2436 43.6274 25.0259 43.6274H38.9741C39.756 43.6274 40.3922 43.0209 40.3922 42.2768V15.9103C40.3917 15.1655 39.756 14.5597 38.9741 14.5597Z" fill="#0E78BE"/>
<path d="M31.9991 0C14.3267 0 0 14.3278 0 31.9996C0 49.6714 14.3267 64.0004 31.9991 64.0004C49.6716 64.0004 64 49.6722 64 31.9996C64 14.3269 49.6716 0 31.9991 0ZM44.4489 47.7915C44.4489 50.2359 42.4671 52.218 40.0225 52.218H23.9767C21.5323 52.218 19.5502 50.2361 19.5502 47.7915V16.069C19.5502 13.6246 21.5321 11.6425 23.9767 11.6425H40.0225C42.4668 11.6425 44.4489 13.6244 44.4489 16.069V47.7915Z" fill="#0E78BE"/>
</svg>
