<svg width="64" height="64" viewBox="0 0 64 64" fill="none" xmlns="http://www.w3.org/2000/svg">
<path d="M31.9991 0C14.3267 0 0 14.3273 0 31.9998C0 49.6722 14.3267 63.9994 31.9991 63.9994C49.6716 63.9994 64 49.6716 64 31.9998C63.9998 14.3267 49.6716 0 31.9991 0ZM15.0934 48.3935C14.2441 48.3935 13.5564 47.7063 13.5564 46.8571V17.1419C13.5564 16.293 14.2441 15.6054 15.0934 15.6054H48.9064C49.7556 15.6054 50.4434 16.2932 50.4434 17.1419V33.5859H48.1405H46.8291V19.1645H17.1357V39.0104H18.8315L25.6836 28.3251L30.2628 35.465L32.537 39.0106H34.5084L31.2484 33.9275L33.373 30.6144L38.7578 39.0102H40.9289V40.7969V44.2981V46.5112H43.1421H45.9267V48.3937H15.0934V48.3935ZM44.2166 25.8223C44.2166 27.5784 42.7924 29.0026 41.0362 29.0026C39.2801 29.0026 37.8558 27.5784 37.8558 25.8223C37.8558 24.0661 39.2801 22.6419 41.0362 22.6419C42.7924 22.6419 44.2166 24.0667 44.2166 25.8223ZM51.6413 44.2979V49.2948H48.1411V48.3935V44.2979H43.1431V40.7966H48.1411V35.7997H50.4441H51.6415V40.7966H56.6389V44.2979H51.6413Z" fill="#0E78BE"/>
</svg>
