<svg width="64" height="64" viewBox="0 0 64 64" fill="none" xmlns="http://www.w3.org/2000/svg">
<path d="M31.9997 0C14.3268 0 0 14.3273 0 31.9995C0 49.6716 14.3269 64.0006 31.9995 64.0006C49.6721 64.0006 64 49.6723 64 31.9995C64 14.3266 49.6723 0 31.9997 0ZM8.68942 44.0532C8.68942 34.0567 17.4687 34.0588 19.4169 31.445L19.6398 30.2531C16.9027 28.8653 14.9705 25.5217 14.9705 21.61C14.9705 16.457 18.3224 12.279 22.4563 12.279C25.7114 12.279 28.4734 14.8741 29.5043 18.491C25.3634 19.8068 22.3003 24.2967 22.3003 29.634C22.3003 33.3085 23.7489 36.6869 26.1269 38.8333C25.7451 39.0291 25.3203 39.2288 24.9551 39.3999C23.0374 40.2995 20.3792 41.5501 18.4615 44.0532H8.68942ZM32.097 52.0766V52.0762H31.9015H18.2328C18.2328 42.0801 27.0121 42.0828 28.9603 39.469L29.1832 38.2771C26.4461 36.8894 24.5139 33.5457 24.5139 29.634C24.5139 24.481 27.8658 20.3031 31.9997 20.3031C36.1335 20.3031 39.4855 24.481 39.4855 29.634C39.4855 33.512 37.5876 36.8358 34.887 38.2445L35.1409 39.5996C37.2783 42.0867 45.7655 42.2488 45.7655 52.0766H32.097ZM45.537 44.0536V44.0532C43.6186 41.5506 40.9605 40.3002 39.0428 39.4005C38.6654 39.2235 38.247 39.027 37.8731 38.835C40.249 36.6858 41.6993 33.3002 41.6993 29.634C41.6993 24.2974 38.6372 19.8083 34.4974 18.492C35.5276 14.8745 38.2897 12.2795 41.5454 12.2795C45.6797 12.2795 49.0312 16.4574 49.0312 21.6104C49.0312 25.4884 47.1334 28.8118 44.4327 30.2209L44.6866 31.576C46.824 34.0626 55.3112 34.2246 55.3112 44.0536H45.537Z" fill="#0E78BE"/>
</svg>
