<svg width="64" height="64" viewBox="0 0 64 64" fill="none" xmlns="http://www.w3.org/2000/svg">
<path d="M31.9999 34.4505C30.1625 34.4505 28.6723 35.94 28.6723 37.7781C28.6723 39.0104 29.3441 40.0837 30.34 40.6592V44.3587H33.6599V40.6592C34.6558 40.0839 35.3276 39.0104 35.3276 37.7781C35.3276 35.94 33.8376 34.4505 31.9999 34.4505Z" fill="#0E78BE"/>
<path d="M32.0012 18.3145C29.2042 18.3145 26.9291 20.5898 26.9291 23.3866V28.7881H37.0729V23.3866C37.0727 20.5902 34.7976 18.3145 32.0012 18.3145Z" fill="#0E78BE"/>
<path d="M31.9995 0C14.3269 0 0 14.3273 0 31.9999C0 49.6721 14.3269 63.9998 31.9995 63.9998C49.6721 63.9998 64 49.6719 64 31.9999C64 14.3273 49.6721 0 31.9995 0ZM41.8322 48.4524H22.1683C20.0916 48.4524 18.408 46.7688 18.408 44.6915V32.5486C18.408 30.7372 19.6895 29.2244 21.3953 28.8685V23.3864C21.3953 17.5391 26.1528 12.7812 32.0005 12.7812C37.8479 12.7812 42.6053 17.5386 42.6053 23.3864V28.8685C44.3105 29.2254 45.592 30.7372 45.592 32.5486V44.6915H45.5924C45.5924 46.7686 43.9088 48.4524 41.8322 48.4524Z" fill="#0E78BE"/>
</svg>
