<svg width="64" height="64" viewBox="0 0 64 64" fill="none" xmlns="http://www.w3.org/2000/svg">
<path d="M29.742 20.5215C24.905 20.5215 20.9833 24.4446 20.9833 29.2816C20.9833 34.1196 24.905 38.0416 29.742 38.0416C34.5801 38.0416 38.5014 34.1198 38.5014 29.2816C38.5016 24.4446 34.5805 20.5215 29.742 20.5215ZM33.9749 31.3543H31.402V33.9272C31.402 34.8441 30.659 35.5872 29.742 35.5872C28.8251 35.5872 28.0821 34.8441 28.0821 33.9272V31.3543H25.5092C24.5923 31.3543 23.8492 30.6113 23.8492 29.6944C23.8492 28.7774 24.5923 28.0344 25.5092 28.0344H28.0821V25.4609C28.0821 24.544 28.8251 23.8009 29.742 23.8009C30.659 23.8009 31.402 24.544 31.402 25.4609V28.0344H33.9749C34.8918 28.0344 35.6348 28.7774 35.6348 29.6944C35.6348 30.6113 34.8922 31.3543 33.9749 31.3543Z" fill="#0E78BE"/>
<path d="M31.9997 0C14.3268 0 0 14.3273 0 31.9995C0 49.6716 14.3269 64.0006 31.9995 64.0006C49.6721 64.0006 64 49.6723 64 31.9995C64 14.3266 49.6723 0 31.9997 0ZM48.094 47.2016C47.5882 47.7085 46.9249 47.9613 46.2615 47.9613C45.598 47.9613 44.9351 47.7085 44.4283 47.2016L37.1439 39.9168C35.0453 41.381 32.4944 42.2413 29.7417 42.2413C22.5847 42.2413 16.7832 36.4394 16.7832 29.2824C16.7832 22.1254 22.5847 16.3239 29.7417 16.3239C36.8987 16.3239 42.7007 22.1254 42.7007 29.2818C42.7007 31.8109 41.9736 34.1691 40.7209 36.1632L48.0938 43.5365C49.1067 44.5484 49.1067 46.19 48.094 47.2016Z" fill="#0E78BE"/>
</svg>
