<svg width="128" height="128" viewBox="0 0 128 128" fill="none" xmlns="http://www.w3.org/2000/svg">
<circle cx="64" cy="64" r="64" fill="#416777"/>
<g filter="url(#filter0_d)">
<path d="M75.593 67.8278C75.4825 69.1747 76.8237 70.1833 78.0869 69.6855L95.2744 62.9267L77.1303 49.1655L75.593 67.8278Z" fill="white"/>
<path d="M119 31L99 58.0114L80.856 44.2503L104 14C111.5 19 114 22.5 119 31Z" fill="white"/>
</g>
<rect x="30" y="85.034" width="74" height="12" rx="6" fill="white"/>
<rect x="30" y="65.034" width="38" height="13" rx="6.5" fill="white"/>
<path d="M64 0C28.6538 0 0 28.6538 0 64C17.524 20 49.7898 10.7325 63.5 17C81 25 99.3462 0 64 0Z" fill="white" fill-opacity="0.25"/>
<defs>
<filter id="filter0_d" x="66.8049" y="12.2897" width="58.6678" height="63.757" filterUnits="userSpaceOnUse" color-interpolation-filters="sRGB">
<feFlood flood-opacity="0" result="BackgroundImageFix"/>
<feColorMatrix in="SourceAlpha" type="matrix" values="0 0 0 0 0 0 0 0 0 0 0 0 0 0 0 0 0 0 127 0"/>
<feOffset dy="4"/>
<feGaussianBlur stdDeviation="1"/>
<feColorMatrix type="matrix" values="0 0 0 0 0 0 0 0 0 0 0 0 0 0 0 0 0 0 0.25 0"/>
<feBlend mode="normal" in2="BackgroundImageFix" result="effect1_dropShadow"/>
<feBlend mode="normal" in="SourceGraphic" in2="effect1_dropShadow" result="shape"/>
</filter>
</defs>
</svg>
